<svg width="680" height="160" viewBox="0 0 680 160" xmlns="http://www.w3.org/2000/svg" role="img">
<title>Post 12 — Tailscale: Remote Access Without Open Ports</title>
<desc>NETWORKING · POST 12 · twilight zone · 200–1000m</desc>
<defs><style>text{font-family:system-ui,-apple-system,sans-serif;}</style></defs>
  <rect x="0" y="0" width="680" height="160" rx="12" fill="#26215C"/>
  <path d="M0 112 Q170 90 340 108 Q510 128 680 108 L680 160 L0 160 Z" fill="#1A1640" opacity="0.5"/>
  <path d="M0 132 Q170 112 340 128 Q510 146 680 128 L680 160 L0 160 Z" fill="#0F0D2A" opacity="0.85"/>
  
  <line x1="420" y1="0"   x2="420" y2="115" stroke="#7F77DD" stroke-width="0.5" opacity="0.15"/>
  <line x1="490" y1="0"   x2="490" y2="115" stroke="#7F77DD" stroke-width="0.5" opacity="0.15"/>
  <line x1="560" y1="0"   x2="560" y2="115" stroke="#7F77DD" stroke-width="0.5" opacity="0.15"/>
  <line x1="630" y1="0"   x2="630" y2="115" stroke="#7F77DD" stroke-width="0.5" opacity="0.15"/>
  <line x1="420" y1="38"  x2="680" y2="38"  stroke="#7F77DD" stroke-width="0.5" opacity="0.15"/>
  <line x1="420" y1="76"  x2="680" y2="76"  stroke="#7F77DD" stroke-width="0.5" opacity="0.15"/>
  <circle cx="455" cy="57" r="18" fill="#534AB7" opacity="0.2"/>
  <circle cx="525" cy="57" r="14" fill="#534AB7" opacity="0.15"/>
  <circle cx="595" cy="57" r="20" fill="#534AB7" opacity="0.18"/>
  <circle cx="455" cy="57" r="8"  fill="#7F77DD" opacity="0.25"/>
  <circle cx="525" cy="57" r="5"  fill="#7F77DD" opacity="0.2"/>
  <circle cx="595" cy="57" r="10" fill="#7F77DD" opacity="0.22"/>
  <rect x="0" y="0" width="680" height="160" rx="12" fill="none" stroke="#534AB7" stroke-width="0.5" opacity="0.3"/>
  <rect x="40" y="20" width="115" height="20" rx="10" fill="#534AB7" opacity="0.25"/>
  <text x="97" y="30" text-anchor="middle" dominant-baseline="central" style="font-size:10px;font-weight:500;fill:#CECBF6;letter-spacing:1px;">TWILIGHT ZONE</text>
  <text x="40" y="66" style="font-size:11px;font-weight:400;fill:#AFA9EC;letter-spacing:1px;">NETWORKING · POST 12</text>
  <text x="40" y="98" style="font-size:26px;font-weight:500;fill:#EEEDFE;">Tailscale: Remote Access Without Open Po…</text>
  <text x="638" y="20" text-anchor="end" style="font-size:10px;font-weight:400;fill:#534AB7;letter-spacing:2px;">200–1000m</text>
</svg>