<svg width="680" height="160" viewBox="0 0 680 160" xmlns="http://www.w3.org/2000/svg" role="img">
<title>Post 1 — Why I Built a Home Lab</title>
<desc>HOMELAB JOURNEY · POST 1 · surface zone · 0–200m</desc>
<defs><style>text{font-family:system-ui,-apple-system,sans-serif;}</style></defs>
  <rect x="0" y="0" width="680" height="160" rx="12" fill="#085041"/>
  <path d="M0 112 Q170 90 340 108 Q510 128 680 108 L680 160 L0 160 Z" fill="#04342C" opacity="0.5"/>
  <path d="M0 132 Q170 112 340 128 Q510 146 680 128 L680 160 L0 160 Z" fill="#04342C" opacity="0.85"/>
  
  <circle cx="60"  cy="50"  r="3" fill="#1D9E75" opacity="0.4"/>
  <circle cx="90"  cy="90"  r="2" fill="#1D9E75" opacity="0.3"/>
  <circle cx="40"  cy="110" r="4" fill="#1D9E75" opacity="0.2"/>
  <circle cx="600" cy="45"  r="3" fill="#1D9E75" opacity="0.4"/>
  <circle cx="635" cy="85"  r="2" fill="#1D9E75" opacity="0.3"/>
  <circle cx="580" cy="115" r="4" fill="#1D9E75" opacity="0.2"/>
  <line x1="420" y1="0"  x2="420" y2="115" stroke="#1D9E75" stroke-width="0.5" opacity="0.12"/>
  <line x1="500" y1="0"  x2="500" y2="115" stroke="#1D9E75" stroke-width="0.5" opacity="0.12"/>
  <line x1="600" y1="0"  x2="600" y2="115" stroke="#1D9E75" stroke-width="0.5" opacity="0.12"/>
  <line x1="420" y1="50" x2="680" y2="50"  stroke="#1D9E75" stroke-width="0.5" opacity="0.12"/>
  <line x1="420" y1="95" x2="680" y2="95"  stroke="#1D9E75" stroke-width="0.5" opacity="0.12"/>
  <rect x="0" y="0" width="680" height="160" rx="12" fill="none" stroke="#1D9E75" stroke-width="0.5" opacity="0.3"/>
  <rect x="40" y="20" width="73" height="20" rx="10" fill="#1D9E75" opacity="0.25"/>
  <text x="76" y="30" text-anchor="middle" dominant-baseline="central" style="font-size:10px;font-weight:500;fill:#9FE1CB;letter-spacing:1px;">SURFACE</text>
  <text x="40" y="66" style="font-size:11px;font-weight:400;fill:#5DCAA5;letter-spacing:1px;">HOMELAB JOURNEY · POST 1</text>
  <text x="40" y="98" style="font-size:26px;font-weight:500;fill:#E1F5EE;">Why I Built a Home Lab</text>
  <text x="638" y="20" text-anchor="end" style="font-size:10px;font-weight:400;fill:#1D9E75;letter-spacing:2px;">0–200m</text>
</svg>